<svg id="Logo_naam_slogan" data-name="Logo + naam + slogan" xmlns="http://www.w3.org/2000/svg" width="547.21" height="170.12" viewBox="0 0 547.21 170.12">
  <text id="Slogan" transform="translate(167.15 164.12)" fill="#a3bbc3" font-size="28" font-family="Helvetica-Oblique, Helvetica" font-style="oblique" letter-spacing="0.26em"><tspan x="0" y="0">ma</tspan><tspan y="0" letter-spacing="0.25em">k</tspan><tspan y="0">e the difference</tspan></text>
  <g id="Workforce">
    <path id="Path_227" data-name="Path 227" d="M197.8,102.78h.11l8.22-30.16h5.7l-11.18,39.99h-5.37l-7.82-30.45h-.11l-8.5,30.45h-5.26L162.86,72.62h5.93l7.82,30.16h.11l8.22-30.16h5.03Z" fill="#a3bbc2"/>
    <path id="Path_228" data-name="Path 228" d="M251.79,444.63c-11.4,0-20.12-9.26-20.12-20.68s8.72-20.68,20.12-20.68,20.13,9.25,20.13,20.68-8.72,20.68-20.13,20.68m0-36.45c-8.33,0-14.42,6.91-14.42,15.77s6.09,15.77,14.42,15.77,14.43-6.92,14.43-15.77-6.1-15.77-14.43-15.77" transform="translate(-10.45 -331.33)" fill="#a3bbc2"/>
    <path id="Path_229" data-name="Path 229" d="M307.19,443.94,295.45,427h-4v16.91h-5.36V404h11.62c6,0,13.37,3.2,13.37,11.48,0,6.8-4.76,10.23-9.56,11.26l12.41,17.25Zm-9.78-35.08h-6v13.26h4.87c5.2,0,9-1.94,9-6.51,0-4.06-3.18-6.75-7.93-6.75" transform="translate(-10.45 -331.33)" fill="#a3bbc2"/>
    <path id="Path_230" data-name="Path 230" d="M331.23,88.39l13.8,24.22h-6.26L327.59,92.84l-6.32,7.72v12.05h-5.36V72.62h5.36v20.4l16.44-20.4h6.54Z" fill="#a3bbc2"/>
    <path id="Path_231" data-name="Path 231" d="M361.46,95.53v17.08H356.1V72.62h19.84v4.91H361.46V90.62h14.48v4.91Z" fill="#a3bbc2"/>
    <path id="Path_232" data-name="Path 232" d="M417.86,444.63c-11.4,0-20.12-9.26-20.12-20.68s8.72-20.68,20.12-20.68S438,412.52,438,424s-8.72,20.68-20.13,20.68m0-36.45c-8.32,0-14.42,6.91-14.42,15.77s6.1,15.77,14.42,15.77S432.3,432.85,432.3,424s-6.1-15.77-14.43-15.77" transform="translate(-10.45 -331.33)" fill="#a3bbc2"/>
    <path id="Path_233" data-name="Path 233" d="M473.26,443.94,461.52,427h-4v16.91h-5.37V404h11.63c6,0,13.36,3.2,13.36,11.48,0,6.8-4.76,10.23-9.56,11.26L480,443.94Zm-9.78-35.08h-6v13.26h4.86c5.2,0,9.05-1.94,9.05-6.51,0-4.06-3.18-6.75-7.93-6.75" transform="translate(-10.45 -331.33)" fill="#a3bbc2"/>
    <path id="Path_234" data-name="Path 234" d="M510.09,444.63c-11.68,0-21-8.06-21-20.68,0-11.83,9.44-20.68,21-20.68a19.57,19.57,0,0,1,10.51,3.08l-2.51,4.23a14.94,14.94,0,0,0-8-2.4c-8.83,0-15.31,6.63-15.31,15.77,0,9.71,6.37,15.77,15.31,15.77a15,15,0,0,0,8.67-2.8l2.85,4.05a20,20,0,0,1-11.52,3.66" transform="translate(-10.45 -331.33)" fill="#a3bbc2"/>
    <path id="Path_235" data-name="Path 235" d="M523.73,112.61V72.62h23.48v4.91H529.1v12h18.11v4.91H529.1V107.7h18.11v4.91Z" fill="#a3bbc2"/>
  </g>
  <g id="Exchange">
    <path id="Path_236" data-name="Path 236" d="M251.7.49H239.53L226.42,18.15l6.08,8.2Z" fill="#2f424f"/>
    <path id="Path_237" data-name="Path 237" d="M226.42,34.54,238.5,50.82h12.17L232.5,26.35Z" fill="#2f424f"/>
    <path id="Path_238" data-name="Path 238" d="M226.42,18.15,213.31.49H201.14l19.2,25.86L202.17,50.82h12.17l12.08-16.28,6.08-8.19Z" fill="#2f424f"/>
    <path id="Path_239" data-name="Path 239" d="M163.37,51.13V.89h32.04V9.57H173.58V20.91h21.83V29.6H173.58V42.45h21.83v8.68Z" fill="#2f424f"/>
    <path id="Path_240" data-name="Path 240" d="M289.78,374.35a16.38,16.38,0,0,0,10.63-4.16l5.71,7.47a27.21,27.21,0,0,1-16.77,5.67c-15,0-26.19-10.63-26.19-26,0-14.71,11.92-26,26.62-26,5.71,0,10.42,1.79,15.34,4.88l-4.92,8a17.27,17.27,0,0,0-10.42-3.88c-9.06,0-15.7,7.47-15.7,17,0,10.05,5.92,17,15.7,17" transform="translate(-10.45 -331.33)" fill="#2f424f"/>
    <path id="Path_241" data-name="Path 241" d="M334.27,51.13V29.6H313.08V51.13h-10.2V.89h10.2V20.91h21.19V.89h10.21V51.13Z" fill="#2f424f"/>
    <path id="Path_242" data-name="Path 242" d="M397.32,382.46l-3.22-9.33H376.34L373,382.46H361.64l20.41-50.24h8.27l18.77,50.24Zm-18-17.72h11.92l-5.78-16.87h-.07Z" transform="translate(-10.45 -331.33)" fill="#2f424f"/>
    <path id="Path_243" data-name="Path 243" d="M438.46,51.13,415.55,19.7V51.13h-10.2V.89h8.99L437.46,32.4V.89h10.2V51.13Z" fill="#2f424f"/>
    <path id="Path_244" data-name="Path 244" d="M493.22,362.15v-8.68h22.19v19.59c-5.21,7-13.13,10.27-21.76,10.27-15.13,0-26.62-10.56-26.62-26,0-14.71,11.92-26,26.62-26,8.42,0,15.48,3.52,21,9.9l-7.07,6.18c-3.49-4.09-8.2-7.11-13.91-7.11-9.07,0-15.7,7.47-15.7,17,0,10.05,6.21,17,15.7,17a17.08,17.08,0,0,0,11.56-4.66V362.1Z" transform="translate(-10.45 -331.33)" fill="#2f424f"/>
    <path id="Path_245" data-name="Path 245" d="M515.16,51.13V.89h32.05V9.57H525.37V20.91h21.84V29.6H525.37V42.45h21.84v8.68Z" fill="#2f424f"/>
  </g>
  <rect id="Streep" width="2.23" height="112" transform="translate(133.33 1)" fill="#2f424f" stroke="#2f424f" stroke-miterlimit="10" stroke-width="2"/>
  <g id="Logo">
    <path id="Path_246" data-name="Path 246" d="M112.51,1H85.44L56.25,40.31,69.79,58.54Z" fill="#a3bbc2"/>
    <path id="Path_247" data-name="Path 247" d="M56.25,76.78,83.15,113h27.07L69.79,58.54Z" fill="#a3bbc2"/>
    <path id="Path_248" data-name="Path 248" d="M56.25,40.31,27.07,1H0L42.72,58.54,2.29,113H29.36L56.25,76.78,69.79,58.54Z" fill="#415464"/>
  </g>
</svg>
